<?xml version="1.0" encoding="UTF-8" standalone="no"?>
<!-- Created with Inkscape (http://www.inkscape.org/) -->

<svg
   xmlns:osb="http://www.openswatchbook.org/uri/2009/osb"
   xmlns:dc="http://purl.org/dc/elements/1.1/"
   xmlns:cc="http://creativecommons.org/ns#"
   xmlns:rdf="http://www.w3.org/1999/02/22-rdf-syntax-ns#"
   xmlns:svg="http://www.w3.org/2000/svg"
   xmlns="http://www.w3.org/2000/svg"
   xmlns:sodipodi="http://sodipodi.sourceforge.net/DTD/sodipodi-0.dtd"
   xmlns:inkscape="http://www.inkscape.org/namespaces/inkscape"
   width="64"
   height="64"
   viewBox="0 0 16.933333 16.933334"
   version="1.1"
   id="svg8"
   inkscape:version="0.92.3 (2405546, 2018-03-11)"
   sodipodi:docname="09-sound_on.svg">
  <defs
     id="defs2">
    <inkscape:perspective
       sodipodi:type="inkscape:persp3d"
       inkscape:vp_x="0 : 8.466667 : 1"
       inkscape:vp_y="0 : 1000 : 0"
       inkscape:vp_z="16.933333 : 8.466667 : 1"
       inkscape:persp3d-origin="8.4666665 : 5.6444447 : 1"
       id="perspective8305" />
    <linearGradient
       id="linearGradient4534"
       osb:paint="solid">
      <stop
         style="stop-color:#000000;stop-opacity:1;"
         offset="0"
         id="stop4532" />
    </linearGradient>
  </defs>
  <sodipodi:namedview
     id="base"
     pagecolor="#ffffff"
     bordercolor="#666666"
     borderopacity="1.0"
     inkscape:pageopacity="0.0"
     inkscape:pageshadow="2"
     inkscape:zoom="11.2"
     inkscape:cx="25.008928"
     inkscape:cy="36.142854"
     inkscape:document-units="mm"
     inkscape:current-layer="layer1"
     showgrid="false"
     units="px"
     inkscape:pagecheckerboard="true"
     inkscape:window-width="1920"
     inkscape:window-height="1017"
     inkscape:window-x="-8"
     inkscape:window-y="-8"
     inkscape:window-maximized="1"
     showguides="false" />
  <metadata
     id="metadata5">
    <rdf:RDF>
      <cc:Work
         rdf:about="">
        <dc:format>image/svg+xml</dc:format>
        <dc:type
           rdf:resource="http://purl.org/dc/dcmitype/StillImage" />
        <dc:title></dc:title>
      </cc:Work>
    </rdf:RDF>
  </metadata>
  <g
     inkscape:label="Vrstva 1"
     inkscape:groupmode="layer"
     id="layer1"
     transform="translate(0,-280.06665)">
    <circle
       id="path3723"
       cx="8.502512"
       cy="288.5643"
       style="fill:none;fill-opacity:1;stroke:#000000;stroke-width:0.79374999;stroke-miterlimit:4;stroke-dasharray:none;stroke-opacity:1"
       r="7.9375" />
    <path
       style="fill:#000000;fill-opacity:1;stroke:#000000;stroke-width:2.24492145;stroke-linecap:butt;stroke-linejoin:miter;stroke-miterlimit:4;stroke-dasharray:none;stroke-opacity:1"
       d="m 6.4207966,286.49928 -1.9347656,0.6444 0.020671,2.84066 1.914095,0.60668 z"
       id="path8604"
       inkscape:connector-curvature="0" />
    <rect
       style="fill:#000000;fill-opacity:1;stroke:#000000;stroke-width:1.46499991;stroke-linecap:butt;stroke-linejoin:miter;stroke-miterlimit:4;stroke-dasharray:none;stroke-opacity:1"
       id="rect8609"
       width="0.047247026"
       height="2.8820686"
       x="2.2206101"
       y="287.09229" />
    <path
       style="fill:#000000;fill-opacity:1;stroke:none;stroke-width:1.44260371;stroke-linecap:butt;stroke-linejoin:miter;stroke-miterlimit:4;stroke-dasharray:none;stroke-opacity:1"
       d="m 10.470407,285.09027 a 2.5643435,3.4465477 0 0 0 -0.06597,0.003 2.6123651,3.5499832 0 0 1 2.090432,3.47832 2.6123651,3.5499832 0 0 1 -1.878237,3.40477 2.5643435,3.4465477 0 0 0 2.418178,-3.43965 2.5643435,3.4465477 0 0 0 -2.564404,-3.44637 z"
       id="path8611"
       inkscape:connector-curvature="0" />
    <path
       style="fill:#000000;fill-opacity:1;stroke:none;stroke-width:1.23001957;stroke-linecap:butt;stroke-linejoin:miter;stroke-miterlimit:4;stroke-dasharray:none;stroke-opacity:1"
       d="m 8.5779836,285.59742 a 2.1864583,2.9386597 0 0 0 -0.056247,0.003 2.2274033,3.0268527 0 0 1 1.7823824,2.96575 2.2274033,3.0268527 0 0 1 -1.6014571,2.90304 2.1864583,2.9386597 0 0 0 2.0618331,-2.93278 2.1864583,2.9386597 0 0 0 -2.1865103,-2.93851 z"
       id="path8611-0"
       inkscape:connector-curvature="0" />
    <path
       style="fill:#000000;fill-opacity:1;stroke:none;stroke-width:1.77417552;stroke-linecap:butt;stroke-linejoin:miter;stroke-miterlimit:4;stroke-dasharray:none;stroke-opacity:1"
       d="m 12.259788,284.29876 a 3.1537389,4.2387113 0 0 0 -0.08113,0.004 3.2127978,4.3659205 0 0 1 2.570902,4.27778 3.2127978,4.3659205 0 0 1 -2.309936,4.18734 3.1537389,4.2387113 0 0 0 2.97398,-4.23023 3.1537389,4.2387113 0 0 0 -3.153814,-4.2385 z"
       id="path8611-6"
       inkscape:connector-curvature="0" />
  </g>
</svg>
