<?xml version="1.0" encoding="UTF-8" standalone="no"?>
<!-- Created with Inkscape (http://www.inkscape.org/) -->

<svg
   xmlns:osb="http://www.openswatchbook.org/uri/2009/osb"
   xmlns:dc="http://purl.org/dc/elements/1.1/"
   xmlns:cc="http://creativecommons.org/ns#"
   xmlns:rdf="http://www.w3.org/1999/02/22-rdf-syntax-ns#"
   xmlns:svg="http://www.w3.org/2000/svg"
   xmlns="http://www.w3.org/2000/svg"
   xmlns:sodipodi="http://sodipodi.sourceforge.net/DTD/sodipodi-0.dtd"
   xmlns:inkscape="http://www.inkscape.org/namespaces/inkscape"
   width="64"
   height="64"
   viewBox="0 0 16.933333 16.933334"
   version="1.1"
   id="svg8"
   inkscape:version="0.92.3 (2405546, 2018-03-11)"
   sodipodi:docname="13-sound_on.svg">
  <defs
     id="defs2">
    <inkscape:perspective
       sodipodi:type="inkscape:persp3d"
       inkscape:vp_x="0 : 8.466667 : 1"
       inkscape:vp_y="0 : 1000 : 0"
       inkscape:vp_z="16.933333 : 8.466667 : 1"
       inkscape:persp3d-origin="8.4666665 : 5.6444447 : 1"
       id="perspective8305" />
    <linearGradient
       id="linearGradient4534"
       osb:paint="solid">
      <stop
         style="stop-color:#000000;stop-opacity:1;"
         offset="0"
         id="stop4532" />
    </linearGradient>
  </defs>
  <sodipodi:namedview
     id="base"
     pagecolor="#ffffff"
     bordercolor="#666666"
     borderopacity="1.0"
     inkscape:pageopacity="0.0"
     inkscape:pageshadow="2"
     inkscape:zoom="11.2"
     inkscape:cx="10.499999"
     inkscape:cy="36.142854"
     inkscape:document-units="mm"
     inkscape:current-layer="layer1"
     showgrid="false"
     units="px"
     inkscape:pagecheckerboard="true"
     inkscape:window-width="1920"
     inkscape:window-height="1017"
     inkscape:window-x="-8"
     inkscape:window-y="-8"
     inkscape:window-maximized="1"
     showguides="false" />
  <metadata
     id="metadata5">
    <rdf:RDF>
      <cc:Work
         rdf:about="">
        <dc:format>image/svg+xml</dc:format>
        <dc:type
           rdf:resource="http://purl.org/dc/dcmitype/StillImage" />
        <dc:title />
      </cc:Work>
    </rdf:RDF>
  </metadata>
  <g
     inkscape:label="Vrstva 1"
     inkscape:groupmode="layer"
     id="layer1"
     transform="translate(0,-280.06665)">
    <path
       style="fill:#000000;fill-opacity:1;stroke:#000000;stroke-width:2.1306715;stroke-linecap:butt;stroke-linejoin:miter;stroke-miterlimit:4;stroke-dasharray:none;stroke-opacity:1"
       d="m 6.5399207,286.6027 -1.8363003,0.6116 0.019619,2.6961 1.8166817,0.5758 z"
       id="path8604"
       inkscape:connector-curvature="0" />
    <rect
       style="fill:#000000;fill-opacity:1;stroke:#000000;stroke-width:1.39044213;stroke-linecap:butt;stroke-linejoin:miter;stroke-miterlimit:4;stroke-dasharray:none;stroke-opacity:1"
       id="rect8609"
       width="0.0448425"
       height="2.7353926"
       x="2.5534928"
       y="287.1655" />
    <path
       style="fill:#000000;fill-opacity:1;stroke:none;stroke-width:1.36918581;stroke-linecap:butt;stroke-linejoin:miter;stroke-miterlimit:4;stroke-dasharray:none;stroke-opacity:1"
       d="m 10.383436,285.2654 a 2.4338373,3.2711437 0 0 0 -0.06261,0.003 2.4794149,3.3693151 0 0 1 1.984044,3.30129 2.4794149,3.3693151 0 0 1 -1.782648,3.2315 2.4338373,3.2711437 0 0 0 2.295111,-3.2646 2.4338373,3.2711437 0 0 0 -2.433895,-3.27098 z"
       id="path8611"
       inkscape:connector-curvature="0" />
    <path
       style="fill:#000000;fill-opacity:1;stroke:none;stroke-width:1.16742063;stroke-linecap:butt;stroke-linejoin:miter;stroke-miterlimit:4;stroke-dasharray:none;stroke-opacity:1"
       d="m 8.5873227,285.74674 a 2.0751836,2.7891035 0 0 0 -0.053384,0.003 2.1140448,2.8728081 0 0 1 1.6916723,2.81481 2.1140448,2.8728081 0 0 1 -1.5199548,2.7553 2.0751836,2.7891035 0 0 0 1.9569008,-2.78353 2.0751836,2.7891035 0 0 0 -2.0752328,-2.78896 z"
       id="path8611-0"
       inkscape:connector-curvature="0" />
    <path
       style="fill:#000000;fill-opacity:1;stroke:none;stroke-width:1.68388307;stroke-linecap:butt;stroke-linejoin:miter;stroke-miterlimit:4;stroke-dasharray:none;stroke-opacity:1"
       d="m 12.081751,284.51417 a 2.9932368,4.022992 0 0 0 -0.077,0.004 3.04929,4.1437272 0 0 1 2.440062,4.06007 3.04929,4.1437272 0 0 1 -2.192378,3.97423 2.9932368,4.022992 0 0 0 2.822627,-4.01494 2.9932368,4.022992 0 0 0 -2.993308,-4.02279 z"
       id="path8611-6"
       inkscape:connector-curvature="0" />
    <circle
       id="path3723-5"
       cx="8.4666662"
       cy="288.53333"
       style="fill:none;fill-opacity:1;stroke:#000000;stroke-width:0.98199999;stroke-miterlimit:4;stroke-dasharray:none;stroke-opacity:1"
       r="7.7963891" />
  </g>
</svg>
